<svg version="1.1" id="Layer_1" xmlns="http://www.w3.org/2000/svg" xmlns:xlink="http://www.w3.org/1999/xlink" x="0px" y="0px"
	 width="100%" viewBox="0 0 760 759" enable-background="new 0 0 760 759" xml:space="preserve">
<path fill="#000000" opacity="1.000000" stroke="none" 
	d="
M427.000000,760.000000 
	C284.666656,760.000000 142.833328,760.000000 1.000000,760.000000 
	C1.000000,507.000000 1.000000,254.000000 1.000000,1.000000 
	C254.333328,1.000000 507.666656,1.000000 761.000000,1.000000 
	C761.000000,254.000000 761.000000,507.000000 761.000000,760.000000 
	C649.833313,760.000000 538.666687,760.000000 427.000000,760.000000 
M375.924713,615.051880 
	C375.924713,615.051880 375.941528,614.959290 376.034760,614.985107 
	C376.034760,614.985107 376.014984,615.042969 375.924713,615.051880 
M444.967133,617.043335 
	C444.967133,617.043335 444.961182,616.987122 445.029297,616.975830 
	C445.029297,616.975830 445.032135,617.051392 444.967133,617.043335 
M454.967194,617.043335 
	C454.967194,617.043335 454.961212,616.987183 455.029480,616.975891 
	C455.029480,616.975891 455.032379,617.051636 454.967194,617.043335 
M100.127815,604.666138 
	C100.991837,605.176636 101.855850,605.687134 102.810692,606.200378 
	C102.810692,606.200378 102.835793,606.287720 103.047829,606.890869 
	C103.972939,607.306885 104.898048,607.722839 105.886200,608.129272 
	C105.886200,608.129272 105.877518,608.192383 106.047600,608.856689 
	C108.658760,610.256958 111.269913,611.657288 114.293381,613.642761 
	C115.884438,613.937378 117.475494,614.231934 118.992584,615.031189 
	C121.577248,616.287598 124.070709,617.805664 126.765930,618.744812 
	C132.064041,620.590942 137.748108,621.552307 142.737701,623.979248 
	C145.843552,625.489990 147.744690,625.666748 150.697647,623.199341 
	C151.423584,623.231323 152.149536,623.263306 153.019836,623.981262 
	C155.267883,627.691162 157.605133,628.356873 160.686432,624.145386 
	C161.085861,624.186768 161.485291,624.228088 162.201859,625.015930 
	C162.886032,625.400940 163.566208,626.112183 164.254990,626.120605 
	C171.476486,626.209106 178.701157,626.265564 185.919907,626.105164 
	C186.993820,626.081299 188.041794,624.890747 189.921097,624.167664 
	C191.290497,624.190308 192.659912,624.212891 194.632568,624.608093 
	C196.460953,624.165527 198.289322,623.722900 200.765930,623.217468 
	C201.196030,623.267700 201.626114,623.317871 202.599258,623.721680 
	C204.561676,623.741638 206.643188,624.203308 208.467575,623.711365 
	C222.354095,619.967224 236.101288,615.751282 248.656708,608.530579 
	C251.686462,606.788208 254.225143,604.191833 256.937775,601.933777 
	C256.937775,601.933777 256.921387,601.860352 257.507294,601.915344 
	C258.634369,601.576111 259.761444,601.236877 261.185577,600.638306 
	C261.185577,600.638306 261.377777,600.294006 261.853149,599.918884 
	C262.349640,599.048950 262.846100,598.179016 263.630829,597.085388 
	C263.630829,597.085388 263.886383,596.825012 264.460297,596.909119 
	C265.391479,596.009033 266.322662,595.108948 267.677429,593.859924 
	C268.075745,593.482483 268.474091,593.105103 269.576752,592.725525 
	C271.231201,591.321411 272.885651,589.917358 274.939301,588.009583 
	C276.396484,586.456848 277.853668,584.904114 279.973145,583.223633 
	C280.817291,582.061584 281.661438,580.899536 282.852905,579.192627 
	C283.888000,578.111694 284.923126,577.030762 286.623352,575.815796 
	C287.343628,574.497070 288.063904,573.178406 288.840790,571.854797 
	C288.840790,571.854797 288.875458,571.809814 289.369904,571.877869 
	C289.849915,571.246521 290.329895,570.615112 290.828918,569.451355 
	C290.869171,569.278442 290.909454,569.105469 291.601288,568.763367 
	C292.029175,567.816345 292.457092,566.869324 293.261749,565.593384 
	C293.464996,565.329407 293.668213,565.065491 294.359100,564.724670 
	C294.688507,564.507141 294.776703,564.216431 294.914368,563.214417 
	C298.469696,555.784729 302.025024,548.355042 306.191528,540.634766 
	C306.292145,540.009583 306.392731,539.384399 306.829071,538.161438 
	C307.124756,537.093262 307.420441,536.025146 308.339996,534.778564 
	C308.800995,533.178650 309.261993,531.578674 309.633575,529.304382 
	C309.648224,528.851685 309.662903,528.398987 310.221039,527.856140 
	C310.336853,527.234497 310.452698,526.612854 310.572723,525.476013 
	C310.586212,525.132812 310.599731,524.789551 311.091278,524.310059 
	C311.289307,523.532104 311.487335,522.754211 311.634888,521.221802 
	C311.711304,520.472656 311.787750,519.723572 312.353058,518.948547 
	C312.463776,518.290344 312.574493,517.632141 312.649933,516.207764 
	C312.649506,515.440857 312.649078,514.673950 313.231873,513.874817 
	C313.382751,512.907410 313.533630,511.940033 313.605621,510.106171 
	C313.607391,508.365601 313.609131,506.625061 314.201782,504.887909 
	C314.300262,503.576538 314.398712,502.265198 314.459961,500.032776 
	C314.481934,495.489594 314.503906,490.946381 315.108521,486.152405 
	C317.131989,483.766693 316.910889,481.597168 314.514771,478.815125 
	C314.516205,476.340576 314.517639,473.865997 314.904999,471.234100 
	C314.773529,470.362793 314.642059,469.491455 314.540619,467.816986 
	C314.527466,465.672119 314.514313,463.527222 314.890900,461.229675 
	C314.761169,460.361206 314.631470,459.492767 314.531372,457.785736 
	C314.525818,454.986389 314.520233,452.187042 314.989899,449.120026 
	C314.830750,447.620636 314.671600,446.121246 314.542542,443.872650 
	C314.520416,442.372864 314.498322,440.873047 315.083801,439.189087 
	C317.829010,436.131287 315.867188,433.402802 314.520569,429.924347 
	C314.509155,428.740967 314.497742,427.557617 314.888275,426.207977 
	C315.682343,423.959869 317.736847,421.635773 314.531464,418.924286 
	C314.526886,417.744537 314.522339,416.564758 314.990112,415.176514 
	C314.834351,414.325745 314.678558,413.474945 314.556335,412.066132 
	C314.547668,411.507385 314.539001,410.948669 315.002838,410.179199 
	C314.846863,409.325623 314.690887,408.472076 314.568604,406.872162 
	C314.554535,405.377869 314.540436,403.883606 314.998810,402.178253 
	C314.835083,401.328400 314.671356,400.478546 314.539398,398.881378 
	C314.524475,397.385345 314.509552,395.889343 315.114594,394.205902 
	C315.472778,393.541534 316.114685,392.889313 316.143768,392.210785 
	C316.356995,387.238220 316.829346,382.231873 316.460266,377.292938 
	C316.144348,373.065399 318.712311,368.269012 314.521606,363.986908 
	C314.513367,363.117767 314.505127,362.248657 314.976044,361.117065 
	C314.817047,359.620667 314.658051,358.124237 314.531464,356.216705 
	C314.543121,355.941498 314.535034,355.666870 315.180359,355.088715 
	C317.552948,349.496826 317.216461,344.016266 314.532593,337.807800 
	C314.516754,335.330261 314.500916,332.852692 314.874115,330.225098 
	C314.746368,329.359619 314.618591,328.494171 314.526031,326.882874 
	C314.525482,325.389618 314.524933,323.896332 315.043579,322.240723 
	C314.874298,321.032318 314.704987,319.823883 314.571991,317.815430 
	C314.565704,315.679565 314.559448,313.543732 314.936676,311.241852 
	C314.804535,310.362732 314.672394,309.483612 314.565155,308.049377 
	C314.545380,307.494324 314.525604,306.939240 314.893829,306.230530 
	C314.759277,305.363281 314.624725,304.496063 314.523438,302.922607 
	C314.514557,301.744690 314.505676,300.566742 315.167908,299.090454 
	C317.606750,295.112549 317.309631,291.296661 314.517944,286.920380 
	C314.505402,285.736603 314.492859,284.552795 314.967316,283.160858 
	C314.814972,281.314331 314.662628,279.467834 314.549133,276.770233 
	C314.538239,273.646210 314.527344,270.522186 315.066528,267.223572 
	C317.549011,264.805145 315.702820,262.741486 314.553955,260.062439 
	C314.534698,259.501770 314.515411,258.941071 314.899353,258.213226 
	C315.805603,255.954239 317.611450,253.640762 314.533234,251.215042 
	C314.545166,250.940475 314.537292,250.666473 315.056061,250.224792 
	C318.103271,248.542130 315.452789,247.708221 314.553253,245.914185 
	C314.543793,244.739090 314.534302,243.564011 314.997620,242.178558 
	C314.837616,241.327316 314.677612,240.476059 314.551361,238.921204 
	C314.540619,237.747528 314.529877,236.573853 315.174835,235.084091 
	C317.541595,230.145813 317.594604,225.315781 314.532532,220.069504 
	C314.521179,219.505295 314.509857,218.941101 315.006927,218.127747 
	C314.835449,216.297287 314.663971,214.466827 314.523102,212.221207 
	C314.533813,211.943375 314.524811,211.666168 315.118622,211.126465 
	C317.865021,208.078384 316.342407,205.346344 314.532745,201.888901 
	C314.521637,200.386948 314.510529,198.885010 314.910309,197.202698 
	C315.452606,190.561340 316.074493,183.924347 316.437988,177.273224 
	C316.484161,176.428543 315.178741,175.510010 314.535492,173.922089 
	C314.530029,172.748199 314.524536,171.574295 315.018707,170.250183 
	C314.859314,169.038193 314.699890,167.826218 314.575256,165.910278 
	C314.554718,164.736176 314.534149,163.562073 314.897491,162.231903 
	C314.763885,161.363434 314.630310,160.494965 314.536438,158.923935 
	C314.535797,157.751465 314.535126,156.579010 315.146149,155.164780 
	C318.000153,152.693054 316.248901,150.654739 314.562256,147.744720 
	C314.453949,144.778107 314.345673,141.811478 314.772461,138.314377 
	C313.496826,137.893112 312.221161,137.471848 310.016144,137.012924 
	C300.355042,137.019028 290.693970,137.025131 280.351196,136.857742 
	C279.889587,136.916122 279.428009,136.974503 278.033905,137.000061 
	C270.033112,137.009323 262.032288,137.018570 253.165436,136.817963 
	C251.097412,136.891418 249.029404,136.964874 246.232727,137.011292 
	C245.503769,137.020706 244.774826,137.030121 243.287994,136.839081 
	C242.513672,136.904663 241.739365,136.970245 240.032715,137.006302 
	C232.702850,137.016251 225.373001,137.026199 217.365463,136.857422 
	C216.904861,136.911087 216.444275,136.964737 215.048950,136.980453 
	C200.703583,136.997772 186.358231,137.015091 171.505112,136.915131 
	C171.335495,136.952652 171.165894,136.990158 170.204407,136.990448 
	C169.148468,137.004654 168.092529,137.018860 166.327621,137.033325 
	C165.015488,138.844482 163.519241,140.551620 162.426056,142.486481 
	C159.267059,148.077759 156.063995,153.660660 153.264709,159.434235 
	C150.111725,165.937332 147.379959,172.644684 144.340591,179.294754 
	C144.340591,179.294754 144.233185,179.365021 143.548874,179.374191 
	C139.188538,188.334366 134.828186,197.294525 130.114227,206.701843 
	C130.003601,207.064926 129.892975,207.428009 129.210861,208.025406 
	C128.926376,208.755569 128.641876,209.485733 127.978905,210.692413 
	C127.594620,211.404434 127.210327,212.116455 126.164764,213.001175 
	C124.999802,214.487839 123.719818,215.903259 122.731224,217.499176 
	C122.377441,218.070267 122.727760,219.077530 122.756706,219.885712 
	C123.504669,219.566986 124.252632,219.248260 125.663742,219.024704 
	C126.109421,219.007492 126.555092,218.990280 127.768127,219.248596 
	C129.754791,219.331970 131.741302,219.484146 133.728119,219.488327 
	C161.121277,219.545898 188.514664,219.549545 215.907394,219.684174 
	C218.295547,219.695923 220.679611,220.536560 223.053757,221.850830 
	C223.064102,223.568710 223.074463,225.286575 222.799774,227.767365 
	C222.728958,241.249649 222.600800,254.731934 222.596924,268.214233 
	C222.576523,339.260345 222.643875,410.306549 222.486053,481.352325 
	C222.472672,487.376190 221.122742,493.411316 220.217697,499.414673 
	C219.467697,504.389526 218.457901,509.325165 217.430176,514.332153 
	C217.430176,514.332153 217.306595,514.405273 216.684525,514.619934 
	C216.311523,515.838318 215.938522,517.056763 215.161102,518.758728 
	C214.855881,519.308472 214.550659,519.858215 213.708313,520.338867 
	C213.068695,521.494385 212.429077,522.649841 211.953293,523.968262 
	C211.953293,523.968262 211.778702,523.816406 211.106155,523.904480 
	C210.477936,524.989258 209.849716,526.074097 209.168427,527.157715 
	C209.168427,527.157715 209.129822,527.194153 208.485641,527.201477 
	C208.106857,527.869629 207.728088,528.537720 207.076630,529.503540 
	C207.076630,529.503540 206.809204,529.805969 206.336243,529.979309 
	C206.151230,530.251343 205.966217,530.523315 205.172256,531.097900 
	C203.198257,532.560913 201.224258,534.023926 198.532700,535.288208 
	C197.404541,536.058167 196.276382,536.828064 194.531647,537.657532 
	C193.770935,537.970642 193.010223,538.283813 191.551956,538.214600 
	C189.616745,539.046753 187.681534,539.878906 185.169281,540.708557 
	C184.784622,540.708618 184.399948,540.708679 183.445724,540.273315 
	C181.884521,540.758423 180.323334,541.243530 177.899765,541.712891 
	C175.025391,541.702209 172.151001,541.691589 169.098877,540.910828 
	C167.146820,540.364136 165.166977,539.900085 163.248077,539.254761 
	C158.153534,537.541565 153.085312,535.750000 147.540100,533.503357 
	C140.043152,526.598206 133.781616,518.919800 130.801193,508.874786 
	C125.829536,492.118622 128.466141,474.965973 127.731918,457.988342 
	C127.688614,456.987030 126.597687,456.031067 125.509171,454.846039 
	C125.334869,454.869904 125.160561,454.893768 124.065292,454.739197 
	C120.750381,454.723022 117.435379,454.683014 114.120567,454.694489 
	C90.752983,454.775391 67.385445,454.866882 43.293190,454.936340 
	C43.001625,455.280029 42.710060,455.623718 42.166218,455.861328 
	C42.166218,455.861328 41.907551,455.950684 41.319859,456.058960 
	C40.824924,456.558441 40.329994,457.057922 39.835033,457.557434 
	C40.540596,458.047241 41.246159,458.537079 42.048744,459.936432 
	C41.879459,463.560364 41.710175,467.184296 40.966141,470.749023 
	C41.222733,471.871429 41.479321,472.993866 41.893318,474.716339 
	C41.895367,475.128906 41.897419,475.541504 41.301380,476.394623 
	C40.839325,479.164307 40.377270,481.934021 40.448494,485.453979 
	C40.938351,487.972687 41.428207,490.491364 41.585590,493.727509 
	C41.949402,496.863098 42.313213,499.998657 42.829235,503.844452 
	C42.833801,504.569489 42.838367,505.294495 42.491566,506.639069 
	C42.597084,510.967865 41.768898,515.581238 42.985016,519.571594 
	C46.487400,531.063599 50.602432,542.386414 54.937897,553.597290 
	C56.387753,557.346375 59.228786,560.557434 61.375504,564.650085 
	C61.999104,565.333679 62.622704,566.017334 63.253548,567.432495 
	C65.777115,570.659607 68.300682,573.886658 70.888184,577.116943 
	C70.888184,577.116943 70.869431,577.178101 70.917244,577.872803 
	C72.246620,579.268066 73.576004,580.663330 75.440392,582.409668 
	C76.706924,583.839600 77.973457,585.269470 79.377151,587.316101 
	C79.989120,587.826843 80.601089,588.337646 81.356712,589.208435 
	C81.356712,589.208435 81.252556,589.581848 81.189934,590.214050 
	C81.492432,590.454346 81.794922,590.694580 82.803749,590.828491 
	C84.826324,592.648621 86.848900,594.468750 89.102989,596.866760 
	C89.827827,597.171204 90.552666,597.475708 91.756416,598.041138 
	C92.133141,598.429138 92.509865,598.817078 93.041290,599.862793 
	C94.315079,600.610962 95.588867,601.359070 96.920135,602.083374 
	C96.920135,602.083374 96.906906,602.144226 97.124176,602.760681 
	C98.067017,603.187378 99.009857,603.614075 99.999466,604.002441 
	C99.999466,604.002441 99.963379,604.051208 100.127815,604.666138 
M378.168793,444.774475 
	C378.110626,451.704987 377.964905,458.636932 378.077118,465.564697 
	C378.096680,466.773071 379.202759,467.963837 379.801971,469.982422 
	C379.540619,471.928101 379.073944,473.871429 379.051971,475.819824 
	C378.930908,486.545349 378.918518,497.272125 378.304504,508.621674 
	C378.245880,524.790405 378.187225,540.959167 378.115112,557.806885 
	C378.121704,558.485840 378.128296,559.164856 377.953888,560.670654 
	C378.563538,562.507568 379.173187,564.344543 379.827911,567.080872 
	C379.551056,575.720886 379.274200,584.360901 378.454712,593.638855 
	C378.304871,597.742371 377.943176,601.853577 378.093048,605.946106 
	C378.169922,608.045410 379.160614,610.111206 379.793976,612.803467 
	C379.781616,613.211975 379.769257,613.620544 379.424255,614.453430 
	C380.346344,614.391541 381.268463,614.329590 383.101807,614.201233 
	C394.696747,614.182129 406.291687,614.163025 418.075989,614.454407 
	C418.753876,614.350342 419.431732,614.246216 420.856293,614.148010 
	C433.946716,614.152527 447.037109,614.157104 460.438263,614.757019 
	C462.377197,617.818176 463.834137,616.629761 465.930115,614.216003 
	C467.224854,614.249573 468.519562,614.283081 470.018158,614.791992 
	C470.831879,614.744934 471.645599,614.697876 472.459320,614.650757 
	C472.113617,614.030640 471.767914,613.410522 471.425690,611.879578 
	C471.453400,563.422363 471.539368,514.965088 471.419678,466.508240 
	C471.407562,461.601166 472.569366,459.133575 478.089294,460.820038 
	C479.424805,460.589752 480.760345,460.359436 482.769470,460.109558 
	C483.435638,460.197876 484.101807,460.286224 484.990997,460.905640 
	C486.015503,460.635254 487.040009,460.364899 488.993439,460.065186 
	C505.106842,460.137024 521.229370,460.577362 537.330994,460.176392 
	C553.242859,459.780090 569.202148,461.623383 585.069946,459.197601 
	C589.797607,458.474884 594.545105,457.883240 599.280579,457.210388 
	C612.661438,455.309021 625.252991,450.860962 637.335510,444.991089 
	C645.299927,441.121887 653.040710,436.791992 660.875427,432.656708 
	C662.540100,431.778168 664.477844,431.152618 665.766479,429.880463 
	C668.580811,427.101929 670.939575,423.866974 673.697327,421.024994 
	C681.422974,413.063232 690.524048,406.081146 696.730652,397.089172 
	C704.696716,385.548157 711.096130,372.750702 716.862549,359.907288 
	C725.550354,340.557037 727.571167,319.599976 728.445251,298.681305 
	C728.812744,289.885284 727.645996,280.970856 726.571289,272.184296 
	C725.528137,263.656433 724.479797,254.999298 722.091614,246.789322 
	C713.718262,218.003555 699.057739,192.999329 675.207336,174.213058 
	C666.999329,167.747849 658.433289,161.466202 649.235718,156.605240 
	C640.238159,151.850037 630.435547,148.264679 620.607239,145.526413 
	C608.962463,142.282059 596.912170,140.493149 584.464600,138.003616 
	C584.280396,138.059052 584.096191,138.114502 583.027710,138.265533 
	C577.805664,138.350143 572.583679,138.434769 567.329895,138.462967 
	C567.329895,138.462967 567.275879,138.498611 567.500854,137.781784 
	C565.281433,137.477051 563.062134,136.907913 560.842468,136.906143 
	C501.892548,136.859207 442.942535,136.861313 383.992615,136.919418 
	C382.277893,136.921112 380.563873,137.619995 378.355499,138.575562 
	C378.291321,140.097076 378.227112,141.618607 378.099182,144.035797 
	C378.078003,150.809036 378.027863,157.582352 378.041229,164.355515 
	C378.077026,182.488068 378.140015,200.620575 378.356812,219.309158 
	C378.851440,219.584824 379.346039,219.860489 379.770966,220.656158 
	C379.638733,220.979706 379.506531,221.303238 378.738556,222.096664 
	C378.571808,232.164352 378.378265,242.231827 378.300995,252.300186 
	C378.296051,252.943695 379.191956,253.594116 379.741730,254.855057 
	C379.653839,255.458588 379.565948,256.062103 378.800262,257.092743 
	C378.870941,265.727875 378.941620,274.363037 379.021057,283.823639 
	C378.993439,285.198517 378.965820,286.573425 378.399658,288.336090 
	C378.347809,289.194550 378.295959,290.053009 378.166779,291.777771 
	C378.198395,293.513733 378.229980,295.249664 378.085876,297.783203 
	C378.369293,303.541473 378.652710,309.299713 378.978577,315.489441 
	C378.978577,315.489441 378.940552,315.921326 378.529083,316.127808 
	C378.224548,316.334045 378.145691,316.605743 378.183105,317.717316 
	C378.210754,318.496277 378.238403,319.275238 378.100037,320.756287 
	C378.379303,321.855835 378.658569,322.955383 379.000916,324.788940 
	C378.999695,325.525543 378.998474,326.262177 378.454254,327.636932 
	C378.374878,338.045746 378.255737,348.454590 378.262817,358.863342 
	C378.263794,360.278229 378.896484,361.692627 379.068451,364.000214 
	C379.089630,367.306122 379.110809,370.612000 378.923462,374.749023 
	C378.688171,375.369171 378.252777,375.987579 378.247375,376.609711 
	C378.153351,387.430542 378.079407,398.251984 378.135620,409.072571 
	C378.139191,409.766693 379.238403,410.455109 379.835510,411.852478 
	C379.235443,413.145874 378.221222,414.408081 378.120911,415.739166 
	C377.908081,418.562286 380.241760,420.705017 378.591614,424.454651 
	C376.970947,428.137177 378.841064,433.355927 378.814545,438.509338 
	C378.575958,439.373352 378.337402,440.237335 378.046692,441.781891 
	C378.094635,442.458618 378.142609,443.135315 378.168793,444.774475 
M411.171143,617.202087 
	C411.393036,617.191772 411.614960,617.181519 411.836853,617.171265 
	C411.615509,617.111328 411.394196,617.051392 411.171143,617.202087 
M135.761642,188.670319 
	C135.761642,188.670319 135.681732,188.368011 135.681732,188.368011 
	C135.681732,188.368011 135.575333,188.662094 135.761642,188.670319 
M441.466980,616.579956 
	C441.466980,616.579956 441.396027,616.464172 441.466980,616.579956 
M39.705719,454.520142 
	C39.705719,454.520142 39.456787,454.397400 39.456787,454.397400 
	C39.456787,454.397400 39.507168,454.668976 39.705719,454.520142 
z"/>
<path fill="#07958F" opacity="1.000000" stroke="none" 
	d="
M378.997253,326.998779 
	C378.998474,326.262177 378.999695,325.525543 378.975159,324.079041 
	C378.721619,322.264130 378.493835,321.159180 378.266052,320.054199 
	C378.238403,319.275238 378.210754,318.496277 378.372772,317.178131 
	C378.736328,316.424957 378.862366,316.185730 378.940552,315.921326 
	C378.940552,315.921326 378.978577,315.489441 379.073242,314.994751 
	C379.456421,311.816589 379.392853,309.033356 380.118134,306.473694 
	C381.142242,302.859497 380.892273,299.758362 378.261566,296.985626 
	C378.229980,295.249664 378.198395,293.513733 378.325806,291.063843 
	C378.635956,289.549408 378.787079,288.748840 378.938202,287.948303 
	C378.965820,286.573425 378.993439,285.198517 379.285736,283.088501 
	C379.526306,273.790771 379.502197,265.228180 379.478088,256.665619 
	C379.565948,256.062103 379.653839,255.458588 379.823639,254.076111 
	C379.728455,242.740387 379.551361,232.183578 379.374268,221.626785 
	C379.506531,221.303238 379.638733,220.979706 379.880981,219.961945 
	C379.952515,217.508545 379.914032,215.749374 379.921387,213.524094 
	C379.986725,190.921173 379.990875,168.784317 380.034149,146.647537 
	C380.049103,139.011749 380.093658,138.991211 387.640045,138.990387 
	C444.731110,138.984085 501.822144,138.993149 558.913208,138.966385 
	C561.729431,138.965057 564.545471,138.675003 567.361633,138.519394 
	C572.583679,138.434769 577.805664,138.350143 583.600769,138.313843 
	C584.524841,138.440735 584.812744,138.344498 585.037598,138.073425 
	C596.912170,140.493149 608.962463,142.282059 620.607239,145.526413 
	C630.435547,148.264679 640.238159,151.850037 649.235718,156.605240 
	C658.433289,161.466202 666.999329,167.747849 675.207336,174.213058 
	C699.057739,192.999329 713.718262,218.003555 722.091614,246.789322 
	C724.479797,254.999298 725.528137,263.656433 726.571289,272.184296 
	C727.645996,280.970856 728.812744,289.885284 728.445251,298.681305 
	C727.571167,319.599976 725.550354,340.557037 716.862549,359.907288 
	C711.096130,372.750702 704.696716,385.548157 696.730652,397.089172 
	C690.524048,406.081146 681.422974,413.063232 673.697327,421.024994 
	C670.939575,423.866974 668.580811,427.101929 665.766479,429.880463 
	C664.477844,431.152618 662.540100,431.778168 660.875427,432.656708 
	C653.040710,436.791992 645.299927,441.121887 637.335510,444.991089 
	C625.252991,450.860962 612.661438,455.309021 599.280579,457.210388 
	C594.545105,457.883240 589.797607,458.474884 585.069946,459.197601 
	C569.202148,461.623383 553.242859,459.780090 537.330994,460.176392 
	C521.229370,460.577362 505.106842,460.137024 488.114655,460.020874 
	C486.413239,460.109222 485.590607,460.241913 484.767975,460.374573 
	C484.101807,460.286224 483.435638,460.197876 482.010254,460.041321 
	C480.114746,460.059753 478.978455,460.146454 477.842194,460.233154 
	C472.569366,459.133575 471.407562,461.601166 471.419678,466.508240 
	C471.539368,514.965088 471.453400,563.422363 471.182159,612.616577 
	C470.563843,613.674561 470.189087,613.995605 469.814331,614.316589 
	C468.519562,614.283081 467.224854,614.249573 465.187378,614.125366 
	C463.005615,614.077087 461.566589,614.119385 460.127533,614.161621 
	C447.037109,614.157104 433.946716,614.152527 420.115143,614.066895 
	C418.878204,614.038513 418.382416,614.091187 417.886627,614.143921 
	C406.291687,614.163025 394.696747,614.182129 382.244507,614.161499 
	C380.843811,614.090881 380.300354,614.059998 379.756927,614.029053 
	C379.769257,613.620544 379.781616,613.211975 379.845032,612.022827 
	C379.596527,605.161743 379.296936,599.081299 378.997314,593.000916 
	C379.274200,584.360901 379.551056,575.720886 379.858429,566.153198 
	C379.926300,547.709045 379.992523,530.192505 379.951324,512.676208 
	C379.947662,511.116119 379.246216,509.557678 378.868835,507.998474 
	C378.918518,497.272125 378.930908,486.545349 379.051971,475.819824 
	C379.073944,473.871429 379.540619,471.928101 379.835266,469.094086 
	C379.919312,465.743164 380.074646,463.277466 380.001465,460.818573 
	C379.773987,453.177826 379.459808,445.539703 379.179260,437.900543 
	C378.841064,433.355927 376.970947,428.137177 378.591614,424.454651 
	C380.241760,420.705017 377.908081,418.562286 378.120911,415.739166 
	C378.221222,414.408081 379.235443,413.145874 379.895203,411.024780 
	C379.984406,400.487671 380.073761,390.777771 380.000946,381.069092 
	C379.983063,378.683319 379.435852,376.301544 379.131958,373.917908 
	C379.110809,370.612000 379.089630,367.306122 379.433319,363.232239 
	C379.870483,351.714325 379.972046,340.964325 379.969635,330.214355 
	C379.969391,329.142426 379.336517,328.070648 378.997253,326.998779 
M600.997559,358.002319 
	C600.997559,358.002319 600.963318,357.969421 601.683960,357.880188 
	C609.400757,355.077728 613.487061,348.798431 617.324158,341.448975 
	C617.486938,341.330200 617.649780,341.211426 618.323853,340.773499 
	C620.866028,335.171234 623.408203,329.568970 625.991821,323.218658 
	C626.405396,321.782898 626.818970,320.347168 627.551025,318.396423 
	C627.700500,317.613220 627.849976,316.830017 627.999878,315.244415 
	C628.130493,314.455475 628.261108,313.666504 628.684631,312.280426 
	C628.785583,311.183716 628.886536,310.087006 628.984558,308.117615 
	C629.080566,306.375580 629.176636,304.633575 629.568909,302.291809 
	C629.480713,300.558563 629.392517,298.825287 629.133118,296.252319 
	C629.093201,294.825623 629.053345,293.398956 629.216980,291.409088 
	C628.869080,289.626953 628.521179,287.844788 627.984314,285.281555 
	C624.495972,268.193573 616.168823,254.341232 602.179016,243.489029 
	C591.957397,235.559906 580.563843,232.293869 568.183777,231.207642 
	C568.183777,231.207642 568.223633,231.259094 567.368958,231.115082 
	C564.604614,230.766617 561.841370,230.125641 559.075684,230.114792 
	C530.366699,230.002060 501.657288,229.990768 472.490479,229.879547 
	C472.094513,230.448410 471.698547,231.017273 471.423859,232.442551 
	C471.451080,248.888931 471.517151,265.335388 471.497009,281.781708 
	C471.461182,311.015686 471.373138,340.249573 471.229156,370.210388 
	C471.522919,371.114502 471.816650,372.018616 473.034882,372.937988 
	C500.700836,372.935272 528.366760,372.932556 556.668091,373.143188 
	C561.578979,372.706818 566.677673,372.950592 571.352844,371.660248 
	C577.075867,370.080688 582.444275,367.216187 588.405579,364.694000 
	C588.405579,364.694000 588.894165,364.687592 589.446045,364.894745 
	C591.985413,363.417664 594.524719,361.940582 597.455688,360.129059 
	C597.618347,360.074158 597.780945,360.019287 598.571655,359.870331 
	C599.371887,359.234802 600.172058,358.599274 600.997559,358.002319 
z"/>
<path fill="#07958F" opacity="1.000000" stroke="none" 
	d="
M268.872375,592.727661 
	C268.474091,593.105103 268.075745,593.482483 267.156982,594.110474 
	C265.719818,595.182373 264.803101,596.003723 263.886383,596.825012 
	C263.886383,596.825012 263.630829,597.085388 263.167664,597.304321 
	C262.262268,598.446777 261.820007,599.370422 261.377777,600.294006 
	C261.377777,600.294006 261.185577,600.638306 260.766602,600.649048 
	C259.205566,601.059937 258.063477,601.460144 256.921387,601.860352 
	C256.921387,601.860352 256.937775,601.933777 256.625916,602.053833 
	C243.601151,610.151245 230.131897,616.397217 215.511093,620.011780 
	C211.023819,621.121155 206.541046,622.248779 202.056213,623.368042 
	C201.626114,623.317871 201.196030,623.267700 200.048889,623.210266 
	C197.564316,623.547180 195.796814,623.891357 194.029312,624.235474 
	C192.659912,624.212891 191.290497,624.190308 189.039185,624.147827 
	C179.399765,624.175110 170.642242,624.222229 161.884720,624.269409 
	C161.485291,624.228088 161.085861,624.186768 159.998871,624.054565 
	C157.166046,623.740906 155.020752,623.518127 152.875473,623.295288 
	C152.149536,623.263306 151.423584,623.231323 150.020386,623.030518 
	C139.250931,620.083252 129.158737,617.304871 119.066559,614.526489 
	C117.475494,614.231934 115.884438,613.937378 114.010612,613.027466 
	C111.111069,611.005615 108.494293,609.598999 105.877518,608.192383 
	C105.877518,608.192383 105.886200,608.129272 105.744522,607.842407 
	C104.680496,607.132935 103.758141,606.710327 102.835793,606.287720 
	C102.835793,606.287720 102.810692,606.200378 102.666855,605.910645 
	C101.669815,605.097717 100.816605,604.574463 99.963387,604.051208 
	C99.963379,604.051208 99.999466,604.002441 99.841019,603.740845 
	C98.757355,603.034241 97.832138,602.589233 96.906906,602.144226 
	C96.906906,602.144226 96.920135,602.083374 96.748466,601.813721 
	C95.346733,600.764343 94.116661,599.984680 92.886589,599.205078 
	C92.509865,598.817078 92.133141,598.429138 91.356316,597.658203 
	C90.261292,596.946533 89.566368,596.617737 88.871460,596.288940 
	C86.848900,594.468750 84.826324,592.648621 82.214157,590.733276 
	C81.500557,590.286011 81.376556,589.933960 81.252556,589.581848 
	C81.252556,589.581848 81.356712,589.208435 81.179176,588.746826 
	C80.414421,587.756592 79.827202,587.228027 79.239990,586.699402 
	C77.973457,585.269470 76.706924,583.839600 75.089676,581.920654 
	C73.449120,580.013794 72.159271,578.595947 70.869431,577.178101 
	C70.869431,577.178101 70.888184,577.116943 70.794579,576.778076 
	C68.216080,573.193176 65.731186,569.947021 63.246300,566.700928 
	C62.622704,566.017334 61.999104,565.333679 61.508724,564.043823 
	C58.954327,557.747864 55.540489,552.279419 53.726940,546.323608 
	C49.675304,533.017944 46.421646,519.469238 42.842930,506.019531 
	C42.838367,505.294495 42.833801,504.569489 42.785530,503.042999 
	C42.467239,499.164398 42.192654,496.087219 41.918068,493.010071 
	C41.428207,490.491364 40.938351,487.972687 40.416496,484.729065 
	C40.889484,481.320801 41.394474,478.637451 41.899467,475.954071 
	C41.897419,475.541504 41.895367,475.128906 41.836304,474.001678 
	C41.699825,472.460754 41.620361,471.634491 41.540894,470.808228 
	C41.710175,467.184296 41.879459,463.560364 42.108028,459.102814 
	C42.080727,457.496368 41.994137,456.723511 41.907551,455.950684 
	C41.907551,455.950684 42.166218,455.861328 42.555481,455.739807 
	C43.302460,455.397186 43.660175,455.176086 44.017891,454.955017 
	C67.385445,454.866882 90.752983,454.775391 114.120567,454.694489 
	C117.435379,454.683014 120.750381,454.723022 124.528442,455.045837 
	C125.118988,455.784607 125.246368,456.216705 125.373749,456.648804 
	C125.580589,456.117188 125.787430,455.585602 125.994278,455.053986 
	C126.597687,456.031067 127.688614,456.987030 127.731918,457.988342 
	C128.466141,474.965973 125.829536,492.118622 130.801193,508.874786 
	C133.781616,518.919800 140.043152,526.598206 147.949997,534.037415 
	C154.515793,539.343079 161.611069,541.350891 169.276627,541.680908 
	C172.151001,541.691589 175.025391,541.702209 178.722885,541.803589 
	C181.035767,541.499084 182.525528,541.103943 184.015289,540.708740 
	C184.399948,540.708679 184.784622,540.708618 185.822205,540.762817 
	C188.399918,540.076965 190.324707,539.336975 192.249512,538.596924 
	C193.010223,538.283813 193.770935,537.970642 195.100647,537.664551 
	C196.863190,536.943298 198.056732,536.215088 199.250275,535.486938 
	C201.224258,534.023926 203.198257,532.560913 205.705139,530.848755 
	C206.523727,530.403687 206.714111,530.139160 206.809204,529.805969 
	C206.809204,529.805969 207.076630,529.503540 207.471039,529.245728 
	C208.286911,528.390015 208.708359,527.792053 209.129807,527.194153 
	C209.129822,527.194153 209.168427,527.157715 209.498596,527.055969 
	C210.478760,525.908264 211.128738,524.862366 211.778717,523.816406 
	C211.778702,523.816406 211.953293,523.968262 212.178131,523.799438 
	C213.017120,522.556335 213.631271,521.482178 214.245422,520.407959 
	C214.550659,519.858215 214.855881,519.308472 215.598602,518.311890 
	C216.459595,516.711731 216.883087,515.558533 217.306580,514.405273 
	C217.306595,514.405273 217.430176,514.332153 217.744659,514.078003 
	C222.293655,504.735413 223.713425,495.071136 223.717056,485.166656 
	C223.747772,401.418121 223.746765,317.669586 223.718552,233.921051 
	C223.717773,231.615448 223.305298,229.309982 223.084808,227.004456 
	C223.074463,225.286575 223.064102,223.568710 223.173492,221.232483 
	C223.206207,219.895706 223.119217,219.177277 222.665436,218.235428 
	C219.696686,217.674240 217.095505,217.050110 214.492615,217.042908 
	C188.088348,216.969772 161.683411,217.062500 135.279922,216.900894 
	C132.487579,216.883789 129.703354,215.538803 126.918930,214.478348 
	C126.890343,213.707382 126.858200,213.267929 126.826050,212.828476 
	C127.210327,212.116455 127.594620,211.404434 128.421341,210.302277 
	C129.169968,209.205124 129.476166,208.498108 129.782349,207.791092 
	C129.892975,207.428009 130.003601,207.064926 130.554413,206.288940 
	C135.407471,197.039017 139.820328,188.202011 144.233185,179.365021 
	C144.233185,179.365021 144.340591,179.294754 144.670090,179.092072 
	C151.173599,167.302643 157.487473,155.787079 163.441483,144.088379 
	C165.378159,140.283112 167.839935,138.933624 172.039566,138.994080 
	C186.506592,139.202347 200.978638,139.082336 215.448715,139.055817 
	C248.378281,138.995453 281.307831,138.916351 314.237366,138.844864 
	C314.345673,141.811478 314.453949,144.778107 314.415405,148.652954 
	C314.357178,151.509628 314.445831,153.458084 314.534485,155.406540 
	C314.535126,156.579010 314.535797,157.751465 314.426208,159.732910 
	C314.381836,161.157242 314.447693,161.772614 314.513580,162.387970 
	C314.534149,163.562073 314.554718,164.736176 314.440002,166.728424 
	C314.376160,168.497833 314.447601,169.449127 314.519043,170.400406 
	C314.524536,171.574295 314.530029,172.748199 314.383942,174.751862 
	C314.321411,182.848770 314.410400,190.115921 314.499390,197.383057 
	C314.510529,198.885010 314.521637,200.386948 314.377808,202.736359 
	C314.313965,206.185745 314.405029,208.787674 314.496094,211.389603 
	C314.524811,211.666168 314.533813,211.943375 314.377747,212.896759 
	C314.321075,215.173843 314.409790,216.775360 314.498535,218.376892 
	C314.509857,218.941101 314.521179,219.505295 314.383789,220.828003 
	C314.329773,226.191071 314.424469,230.795624 314.519165,235.400177 
	C314.529877,236.573853 314.540619,237.747528 314.442017,239.730804 
	C314.396729,241.156586 314.460785,241.772751 314.524811,242.388916 
	C314.534302,243.564011 314.543793,244.739090 314.422607,246.731796 
	C314.364502,248.497284 314.437073,249.445175 314.509674,250.393051 
	C314.537292,250.666473 314.545166,250.940475 314.380707,251.890350 
	C314.317505,254.503891 314.406830,256.442139 314.496155,258.380402 
	C314.515411,258.941071 314.534698,259.501770 314.408905,260.815125 
	C314.348053,263.511292 314.432251,265.454712 314.516449,267.398163 
	C314.527344,270.522186 314.538239,273.646210 314.398682,277.663940 
	C314.325623,280.161469 314.402985,281.765228 314.480347,283.369019 
	C314.492859,284.552795 314.505402,285.736603 314.372742,287.751343 
	C314.317291,292.184479 314.407043,295.786652 314.496765,299.388824 
	C314.505676,300.566742 314.514557,301.744690 314.416595,303.732361 
	C314.375122,305.156128 314.440460,305.770142 314.505798,306.384186 
	C314.525604,306.939240 314.545380,307.494324 314.461395,308.791504 
	C314.422821,310.158386 314.488007,310.783142 314.553192,311.407867 
	C314.559448,313.543732 314.565704,315.679565 314.437469,318.682159 
	C314.376770,320.500275 314.450592,321.451691 314.524414,322.403076 
	C314.524933,323.896332 314.525482,325.389618 314.414825,327.710205 
	C314.364105,329.150085 314.424622,329.762634 314.485107,330.375153 
	C314.500916,332.852692 314.516754,335.330261 314.385345,338.697632 
	C314.327789,344.855927 314.417511,350.124359 314.507233,355.392822 
	C314.535034,355.666870 314.543121,355.941498 314.392181,356.888855 
	C314.334229,358.833832 314.415558,360.106659 314.496918,361.379517 
	C314.505127,362.248657 314.513367,363.117767 314.369568,364.789612 
	C314.309875,375.192657 314.402252,384.792969 314.494629,394.393311 
	C314.509552,395.889343 314.524475,397.385345 314.432983,399.712646 
	C314.393188,401.159027 314.459778,401.774170 314.526367,402.389313 
	C314.540436,403.883606 314.554535,405.377869 314.457550,407.703979 
	C314.407776,409.153839 314.469055,409.771881 314.530334,410.389923 
	C314.539001,410.948669 314.547668,411.507385 314.445923,412.802002 
	C314.396271,414.153595 314.457031,414.769318 314.517761,415.385010 
	C314.522339,416.564758 314.526886,417.744537 314.381195,419.747925 
	C314.316071,422.505798 314.401184,424.440002 314.486328,426.374237 
	C314.497742,427.557617 314.509155,428.740967 314.373566,430.752075 
	C314.309784,434.177612 314.393005,436.775421 314.476196,439.373260 
	C314.498322,440.873047 314.520416,442.372864 314.403748,444.715240 
	C314.348175,446.834442 314.431427,448.111084 314.514709,449.387695 
	C314.520233,452.187042 314.525818,454.986389 314.424927,458.661682 
	C314.379395,460.152527 314.440277,460.767426 314.501160,461.382355 
	C314.514313,463.527222 314.527466,465.672119 314.434570,468.677673 
	C314.392059,470.156067 314.455566,470.773743 314.519073,471.391449 
	C314.517639,473.865997 314.516205,476.340576 314.373322,479.700378 
	C314.329865,482.524841 314.427856,484.464020 314.525848,486.403198 
	C314.503906,490.946381 314.481934,495.489594 314.260071,500.715088 
	C313.910461,502.559784 313.760712,503.722137 313.610901,504.884491 
	C313.609131,506.625061 313.607391,508.365601 313.404358,510.639496 
	C313.018280,512.084229 312.833435,512.995605 312.648621,513.907043 
	C312.649078,514.673950 312.649506,515.440857 312.462463,516.665894 
	C312.138031,517.740845 312.001099,518.357605 311.864166,518.974426 
	C311.787750,519.723572 311.711304,520.472656 311.436279,521.779602 
	C311.029510,523.040405 310.821381,523.743347 310.613220,524.446350 
	C310.599731,524.789551 310.586212,525.132812 310.361633,525.855469 
	C309.992889,526.805420 309.835236,527.375854 309.677551,527.946289 
	C309.662903,528.398987 309.648224,528.851685 309.414795,529.771790 
	C308.702728,531.811768 308.209442,533.384399 307.716125,534.956970 
	C307.420441,536.025146 307.124756,537.093262 306.480408,538.579590 
	C305.947968,539.640259 305.764130,540.282837 305.580322,540.925354 
	C302.025024,548.355042 298.469696,555.784729 294.577759,563.631592 
	C294.004150,564.243835 293.880920,564.494751 293.871460,564.801514 
	C293.668213,565.065491 293.464996,565.329407 292.789795,565.899170 
	C291.861816,567.114136 291.405762,568.023376 290.949738,568.932556 
	C290.909454,569.105469 290.869171,569.278442 290.540405,569.786499 
	C289.793121,570.684326 289.334290,571.247070 288.875458,571.809814 
	C288.875458,571.809814 288.840790,571.854797 288.509155,571.972534 
	C287.437744,573.376770 286.697998,574.663269 285.958252,575.949829 
	C284.923126,577.030762 283.888000,578.111694 282.369446,579.538635 
	C281.027618,581.040222 280.169250,582.195740 279.310852,583.351318 
	C277.853668,584.904114 276.396484,586.456848 274.391907,588.229492 
	C272.187164,589.875427 270.529785,591.301514 268.872375,592.727661 
z"/>
<path fill="#055652" opacity="1.000000" stroke="none" 
	d="
M222.942291,227.385910 
	C223.305298,229.309982 223.717773,231.615448 223.718552,233.921051 
	C223.746765,317.669586 223.747772,401.418121 223.717056,485.166656 
	C223.713425,495.071136 222.293655,504.735413 217.811188,514.051025 
	C218.457901,509.325165 219.467697,504.389526 220.217697,499.414673 
	C221.122742,493.411316 222.472672,487.376190 222.486053,481.352325 
	C222.643875,410.306549 222.576523,339.260345 222.596924,268.214233 
	C222.600800,254.731934 222.728958,241.249649 222.942291,227.385910 
z"/>
<path fill="#044B47" opacity="1.000000" stroke="none" 
	d="
M567.345764,138.491180 
	C564.545471,138.675003 561.729431,138.965057 558.913208,138.966385 
	C501.822144,138.993149 444.731110,138.984085 387.640045,138.990387 
	C380.093658,138.991211 380.049103,139.011749 380.034149,146.647537 
	C379.990875,168.784317 379.986725,190.921173 379.730103,213.522064 
	C379.492981,213.986145 379.110443,213.979736 379.061951,213.514481 
	C378.994446,197.328522 379.055267,181.607147 378.921814,165.887405 
	C378.857452,158.303375 378.427399,150.722458 378.162933,143.140121 
	C378.227112,141.618607 378.291321,140.097076 379.081421,138.287262 
	C434.829010,138.001236 489.850677,137.984985 544.872314,138.027649 
	C552.340271,138.033447 559.808044,138.334351 567.275879,138.498611 
	C567.275879,138.498611 567.329895,138.462967 567.345764,138.491180 
z"/>
<path fill="#055652" opacity="1.000000" stroke="none" 
	d="
M314.504913,138.579620 
	C281.307831,138.916351 248.378281,138.995453 215.448715,139.055817 
	C200.978638,139.082336 186.506592,139.202347 172.039566,138.994080 
	C167.839935,138.933624 165.378159,140.283112 163.441483,144.088379 
	C157.487473,155.787079 151.173599,167.302643 144.732285,179.076294 
	C147.379959,172.644684 150.111725,165.937332 153.264709,159.434235 
	C156.063995,153.660660 159.267059,148.077759 162.426056,142.486481 
	C163.519241,140.551620 165.015488,138.844482 166.965134,137.122528 
	C168.733871,137.150360 169.865082,137.089020 170.996307,137.027664 
	C171.165894,136.990158 171.335495,136.952652 172.149139,137.096695 
	C182.241562,137.440704 191.689865,137.712463 201.138397,137.720871 
	C206.086609,137.725266 211.035233,137.267471 215.983673,137.018402 
	C216.444275,136.964737 216.904861,136.911087 218.098373,137.045929 
	C226.209198,137.168243 233.587128,137.102051 240.965042,137.035858 
	C241.739365,136.970245 242.513672,136.904663 243.917267,136.984238 
	C245.351486,137.099030 246.156433,137.068680 246.961380,137.038330 
	C249.029404,136.964874 251.097412,136.891418 253.988861,137.037781 
	C262.863647,137.182693 270.915039,137.107773 278.966400,137.032867 
	C279.428009,136.974503 279.889587,136.916122 281.084106,137.053528 
	C291.526489,137.183075 301.236023,137.116837 310.945526,137.050583 
	C312.221161,137.471848 313.496826,137.893112 314.504913,138.579620 
z"/>
<path fill="#055652" opacity="1.000000" stroke="none" 
	d="
M223.032227,218.458832 
	C223.119217,219.177277 223.206207,219.895706 223.179398,220.803162 
	C220.679611,220.536560 218.295547,219.695923 215.907394,219.684174 
	C188.514664,219.549545 161.121277,219.545898 133.728119,219.488327 
	C131.741302,219.484146 129.754791,219.331970 127.411362,218.901093 
	C127.054588,218.553574 127.164398,218.145172 127.621872,218.137268 
	C142.074188,218.120041 156.069199,218.060806 170.063812,218.113953 
	C187.720123,218.180984 205.376099,218.339676 223.032227,218.458832 
z"/>
<path fill="#107F7A" opacity="1.000000" stroke="none" 
	d="
M567.388367,138.140198 
	C559.808044,138.334351 552.340271,138.033447 544.872314,138.027649 
	C489.850677,137.984985 434.829010,138.001236 379.328430,137.996368 
	C380.563873,137.619995 382.277893,136.921112 383.992615,136.919418 
	C442.942535,136.861313 501.892548,136.859207 560.842468,136.906143 
	C563.062134,136.907913 565.281433,137.477051 567.388367,138.140198 
z"/>
<path fill="#04302E" opacity="1.000000" stroke="none" 
	d="
M42.667244,506.329285 
	C46.421646,519.469238 49.675304,533.017944 53.726940,546.323608 
	C55.540489,552.279419 58.954327,557.747864 61.537918,563.725952 
	C59.228786,560.557434 56.387753,557.346375 54.937897,553.597290 
	C50.602432,542.386414 46.487400,531.063599 42.985016,519.571594 
	C41.768898,515.581238 42.597084,510.967865 42.667244,506.329285 
z"/>
<path fill="#04302E" opacity="1.000000" stroke="none" 
	d="
M202.327728,623.544861 
	C206.541046,622.248779 211.023819,621.121155 215.511093,620.011780 
	C230.131897,616.397217 243.601151,610.151245 256.651855,602.081055 
	C254.225143,604.191833 251.686462,606.788208 248.656708,608.530579 
	C236.101288,615.751282 222.354095,619.967224 208.467575,623.711365 
	C206.643188,624.203308 204.561676,623.741638 202.327728,623.544861 
z"/>
<path fill="#034F49" opacity="1.000000" stroke="none" 
	d="
M378.586670,508.310059 
	C379.246216,509.557678 379.947662,511.116119 379.951324,512.676208 
	C379.992523,530.192505 379.926300,547.709045 379.835876,565.703491 
	C379.173187,564.344543 378.563538,562.507568 378.107178,560.026611 
	C378.216522,558.630981 378.172577,557.879456 378.128601,557.127930 
	C378.187225,540.959167 378.245880,524.790405 378.586670,508.310059 
z"/>
<path fill="#107F7A" opacity="1.000000" stroke="none" 
	d="
M378.131042,143.587952 
	C378.427399,150.722458 378.857452,158.303375 378.921814,165.887405 
	C379.055267,181.607147 378.994446,197.328522 379.022705,213.867889 
	C378.752014,216.042053 378.472107,217.397583 378.192200,218.753098 
	C378.140015,200.620575 378.077026,182.488068 378.041229,164.355515 
	C378.027863,157.582352 378.078003,150.809036 378.131042,143.587952 
z"/>
<path fill="#04302E" opacity="1.000000" stroke="none" 
	d="
M119.029572,614.778809 
	C129.158737,617.304871 139.250931,620.083252 149.659378,623.078186 
	C147.744690,625.666748 145.843552,625.489990 142.737701,623.979248 
	C137.748108,621.552307 132.064041,620.590942 126.765930,618.744812 
	C124.070709,617.805664 121.577248,616.287598 119.029572,614.778809 
z"/>
<path fill="#055652" opacity="1.000000" stroke="none" 
	d="
M314.804626,394.299622 
	C314.402252,384.792969 314.309875,375.192657 314.350616,365.115112 
	C318.712311,368.269012 316.144348,373.065399 316.460266,377.292938 
	C316.829346,382.231873 316.356995,387.238220 316.143768,392.210785 
	C316.114685,392.889313 315.472778,393.541534 314.804626,394.299622 
z"/>
<path fill="#034F49" opacity="1.000000" stroke="none" 
	d="
M379.027710,374.333466 
	C379.435852,376.301544 379.983063,378.683319 380.000946,381.069092 
	C380.073761,390.777771 379.984406,400.487671 379.891418,410.671631 
	C379.238403,410.455109 378.139191,409.766693 378.135620,409.072571 
	C378.079407,398.251984 378.153351,387.430542 378.247375,376.609711 
	C378.252777,375.987579 378.688171,375.369171 379.027710,374.333466 
z"/>
<path fill="#034F49" opacity="1.000000" stroke="none" 
	d="
M378.725769,327.317871 
	C379.336517,328.070648 379.969391,329.142426 379.969635,330.214355 
	C379.972046,340.964325 379.870483,351.714325 379.517456,362.785767 
	C378.896484,361.692627 378.263794,360.278229 378.262817,358.863342 
	C378.255737,348.454590 378.374878,338.045746 378.725769,327.317871 
z"/>
<path fill="#034F49" opacity="1.000000" stroke="none" 
	d="
M379.056396,221.861725 
	C379.551361,232.183578 379.728455,242.740387 379.787170,253.769257 
	C379.191956,253.594116 378.296051,252.943695 378.300995,252.300186 
	C378.378265,242.231827 378.571808,232.164352 379.056396,221.861725 
z"/>
<path fill="#055652" opacity="1.000000" stroke="none" 
	d="
M143.891022,179.369598 
	C139.820328,188.202011 135.407471,197.039017 130.731232,206.065369 
	C134.828186,197.294525 139.188538,188.334366 143.891022,179.369598 
z"/>
<path fill="#055652" opacity="1.000000" stroke="none" 
	d="
M314.704834,197.292877 
	C314.410400,190.115921 314.321411,182.848770 314.365936,175.103668 
	C315.178741,175.510010 316.484161,176.428543 316.437988,177.273224 
	C316.074493,183.924347 315.452606,190.561340 314.704834,197.292877 
z"/>
<path fill="#034F49" opacity="1.000000" stroke="none" 
	d="
M378.996887,438.204956 
	C379.459808,445.539703 379.773987,453.177826 380.001465,460.818573 
	C380.074646,463.277466 379.919312,465.743164 379.837769,468.684235 
	C379.202759,467.963837 378.096680,466.773071 378.077118,465.564697 
	C377.964905,458.636932 378.110626,451.704987 378.394775,444.130310 
	C378.446777,442.691223 378.272827,441.896271 378.098846,441.101349 
	C378.337402,440.237335 378.575958,439.373352 378.996887,438.204956 
z"/>
<path fill="#04302E" opacity="1.000000" stroke="none" 
	d="
M162.043289,624.642639 
	C170.642242,624.222229 179.399765,624.175110 188.629532,624.183960 
	C188.041794,624.890747 186.993820,626.081299 185.919907,626.105164 
	C178.701157,626.265564 171.476486,626.209106 164.254990,626.120605 
	C163.566208,626.112183 162.886032,625.400940 162.043289,624.642639 
z"/>
<path fill="#034F49" opacity="1.000000" stroke="none" 
	d="
M379.139160,256.879181 
	C379.502197,265.228180 379.526306,273.790771 379.281342,282.675751 
	C378.941620,274.363037 378.870941,265.727875 379.139160,256.879181 
z"/>
<path fill="#055652" opacity="1.000000" stroke="none" 
	d="
M314.843811,355.240784 
	C314.417511,350.124359 314.327789,344.855927 314.371002,339.110443 
	C317.216461,344.016266 317.552948,349.496826 314.843811,355.240784 
z"/>
<path fill="#07958F" opacity="1.000000" stroke="none" 
	d="
M215.516312,136.999420 
	C211.035233,137.267471 206.086609,137.725266 201.138397,137.720871 
	C191.689865,137.712463 182.241562,137.440704 172.403015,137.155334 
	C186.358231,137.015091 200.703583,136.997772 215.516312,136.999420 
z"/>
<path fill="#055652" opacity="1.000000" stroke="none" 
	d="
M314.846985,235.242126 
	C314.424469,230.795624 314.329773,226.191071 314.366882,221.109802 
	C317.594604,225.315781 317.541595,230.145813 314.846985,235.242126 
z"/>
<path fill="#055652" opacity="1.000000" stroke="none" 
	d="
M169.187744,541.295898 
	C161.611069,541.350891 154.515793,539.343079 148.183258,534.280518 
	C153.085312,535.750000 158.153534,537.541565 163.248077,539.254761 
	C165.166977,539.900085 167.146820,540.364136 169.187744,541.295898 
z"/>
<path fill="#044B47" opacity="1.000000" stroke="none" 
	d="
M378.726013,593.319885 
	C379.296936,599.081299 379.596527,605.161743 379.817230,611.717163 
	C379.160614,610.111206 378.169922,608.045410 378.093048,605.946106 
	C377.943176,601.853577 378.304871,597.742371 378.726013,593.319885 
z"/>
<path fill="#107F7A" opacity="1.000000" stroke="none" 
	d="
M378.173706,297.384399 
	C380.892273,299.758362 381.142242,302.859497 380.118134,306.473694 
	C379.392853,309.033356 379.456421,311.816589 379.052002,314.778992 
	C378.652710,309.299713 378.369293,303.541473 378.173706,297.384399 
z"/>
<path fill="#055652" opacity="1.000000" stroke="none" 
	d="
M314.832336,299.239624 
	C314.407043,295.786652 314.317291,292.184479 314.358398,288.106262 
	C317.309631,291.296661 317.606750,295.112549 314.832336,299.239624 
z"/>
<path fill="#07958F" opacity="1.000000" stroke="none" 
	d="
M310.480835,137.031754 
	C301.236023,137.116837 291.526489,137.183075 281.424927,137.140289 
	C290.693970,137.025131 300.355042,137.019028 310.480835,137.031754 
z"/>
<path fill="#07958F" opacity="1.000000" stroke="none" 
	d="
M278.500153,137.016449 
	C270.915039,137.107773 262.863647,137.182693 254.421890,137.142700 
	C262.032288,137.018570 270.033112,137.009323 278.500153,137.016449 
z"/>
<path fill="#04302E" opacity="1.000000" stroke="none" 
	d="
M152.947662,623.638306 
	C155.020752,623.518127 157.166046,623.740906 159.697662,624.075928 
	C157.605133,628.356873 155.267883,627.691162 152.947662,623.638306 
z"/>
<path fill="#04302E" opacity="1.000000" stroke="none" 
	d="
M63.249920,567.066711 
	C65.731186,569.947021 68.216080,573.193176 70.762611,576.776489 
	C68.300682,573.886658 65.777115,570.659607 63.249920,567.066711 
z"/>
<path fill="#07958F" opacity="1.000000" stroke="none" 
	d="
M240.498871,137.021088 
	C233.587128,137.102051 226.209198,137.168243 218.437210,137.135300 
	C225.373001,137.026199 232.702850,137.016251 240.498871,137.021088 
z"/>
<path fill="#055652" opacity="1.000000" stroke="none" 
	d="
M314.807373,211.258026 
	C314.405029,208.787674 314.313965,206.185745 314.356567,203.111267 
	C316.342407,205.346344 317.865021,208.078384 314.807373,211.258026 
z"/>
<path fill="#04302E" opacity="1.000000" stroke="none" 
	d="
M41.751827,493.368774 
	C42.192654,496.087219 42.467239,499.164398 42.709427,502.687897 
	C42.313213,499.998657 41.949402,496.863098 41.751827,493.368774 
z"/>
<path fill="#055652" opacity="1.000000" stroke="none" 
	d="
M314.779999,439.281189 
	C314.393005,436.775421 314.309784,434.177612 314.355896,431.106750 
	C315.867188,433.402802 317.829010,436.131287 314.779999,439.281189 
z"/>
<path fill="#055652" opacity="1.000000" stroke="none" 
	d="
M126.495407,212.914825 
	C126.858200,213.267929 126.890343,213.707382 126.727768,214.690506 
	C126.269218,215.738998 126.005386,216.243820 125.570816,216.986450 
	C125.266922,217.792679 125.133759,218.361099 125.000595,218.929535 
	C124.252632,219.248260 123.504669,219.566986 122.756699,219.885712 
	C122.727760,219.077530 122.377441,218.070267 122.731224,217.499176 
	C123.719818,215.903259 124.999802,214.487839 126.495407,212.914825 
z"/>
<path fill="#055652" opacity="1.000000" stroke="none" 
	d="
M314.817200,486.277802 
	C314.427856,484.464020 314.329865,482.524841 314.356598,480.113007 
	C316.910889,481.597168 317.131989,483.766693 314.817200,486.277802 
z"/>
<path fill="#04302E" opacity="1.000000" stroke="none" 
	d="
M41.600422,476.174347 
	C41.394474,478.637451 40.889484,481.320801 40.149857,484.353943 
	C40.377270,481.934021 40.839325,479.164307 41.600422,476.174347 
z"/>
<path fill="#055652" opacity="1.000000" stroke="none" 
	d="
M314.840332,155.285660 
	C314.445831,153.458084 314.357178,151.509628 314.399048,149.087296 
	C316.248901,150.654739 318.000153,152.693054 314.840332,155.285660 
z"/>
<path fill="#04302E" opacity="1.000000" stroke="none" 
	d="
M105.962555,608.524536 
	C108.494293,609.598999 111.111069,611.005615 113.804459,612.734863 
	C111.269913,611.657288 108.658760,610.256958 105.962555,608.524536 
z"/>
<path fill="#055652" opacity="1.000000" stroke="none" 
	d="
M314.697754,258.296814 
	C314.406830,256.442139 314.317505,254.503891 314.364197,252.095398 
	C317.611450,253.640762 315.805603,255.954239 314.697754,258.296814 
z"/>
<path fill="#024842" opacity="1.000000" stroke="none" 
	d="
M460.282898,614.459351 
	C461.566589,614.119385 463.005615,614.077087 464.798737,614.128540 
	C463.834137,616.629761 462.377197,617.818176 460.282898,614.459351 
z"/>
<path fill="#055652" opacity="1.000000" stroke="none" 
	d="
M314.687317,426.291107 
	C314.401184,424.440002 314.316071,422.505798 314.361328,420.101379 
	C317.736847,421.635773 315.682343,423.959869 314.687317,426.291107 
z"/>
<path fill="#055652" opacity="1.000000" stroke="none" 
	d="
M314.791504,267.310852 
	C314.432251,265.454712 314.348053,263.511292 314.394714,261.095398 
	C315.702820,262.741486 317.549011,264.805145 314.791504,267.310852 
z"/>
<path fill="#055652" opacity="1.000000" stroke="none" 
	d="
M269.224548,592.726562 
	C270.529785,591.301514 272.187164,589.875427 274.192322,588.481323 
	C272.885651,589.917358 271.231201,591.321411 269.224548,592.726562 
z"/>
<path fill="#055652" opacity="1.000000" stroke="none" 
	d="
M191.900726,538.405762 
	C190.324707,539.336975 188.399918,540.076965 186.110718,540.764038 
	C187.681534,539.878906 189.616745,539.046753 191.900726,538.405762 
z"/>
<path fill="#04302E" opacity="1.000000" stroke="none" 
	d="
M194.330933,624.421814 
	C195.796814,623.891357 197.564316,623.547180 199.724762,623.241699 
	C198.289322,623.722900 196.460953,624.165527 194.330933,624.421814 
z"/>
<path fill="#04302E" opacity="1.000000" stroke="none" 
	d="
M70.893333,577.525452 
	C72.159271,578.595947 73.449120,580.013794 74.822174,581.745117 
	C73.576004,580.663330 72.246620,579.268066 70.893333,577.525452 
z"/>
<path fill="#055652" opacity="1.000000" stroke="none" 
	d="
M314.752319,449.253845 
	C314.431427,448.111084 314.348175,446.834442 314.388672,445.089844 
	C314.671600,446.121246 314.830750,447.620636 314.752319,449.253845 
z"/>
<path fill="#055652" opacity="1.000000" stroke="none" 
	d="
M313.906372,504.886200 
	C313.760712,503.722137 313.910461,502.559784 314.278687,501.175629 
	C314.398712,502.265198 314.300262,503.576538 313.906372,504.886200 
z"/>
<path fill="#055652" opacity="1.000000" stroke="none" 
	d="
M308.028076,534.867798 
	C308.209442,533.384399 308.702728,531.811768 309.459534,530.109009 
	C309.261993,531.578674 308.800995,533.178650 308.028076,534.867798 
z"/>
<path fill="#055652" opacity="1.000000" stroke="none" 
	d="
M314.736481,361.248291 
	C314.415558,360.106659 314.334229,358.833832 314.375977,357.094421 
	C314.658051,358.124237 314.817047,359.620667 314.736481,361.248291 
z"/>
<path fill="#055652" opacity="1.000000" stroke="none" 
	d="
M314.723816,283.264954 
	C314.402985,281.765228 314.325623,280.161469 314.379272,278.089478 
	C314.662628,279.467834 314.814972,281.314331 314.723816,283.264954 
z"/>
<path fill="#055652" opacity="1.000000" stroke="none" 
	d="
M183.730499,540.491028 
	C182.525528,541.103943 181.035767,541.499084 179.154083,541.811401 
	C180.323334,541.243530 181.884521,540.758423 183.730499,540.491028 
z"/>
<path fill="#04302E" opacity="1.000000" stroke="none" 
	d="
M41.613705,456.004822 
	C41.994137,456.723511 42.080727,457.496368 42.059517,458.648071 
	C41.246159,458.537079 40.540596,458.047241 39.835049,457.557434 
	C40.329994,457.057922 40.824924,456.558441 41.613705,456.004822 
z"/>
<path fill="#055652" opacity="1.000000" stroke="none" 
	d="
M312.940247,513.890930 
	C312.833435,512.995605 313.018280,512.084229 313.443787,511.072754 
	C313.533630,511.940033 313.382751,512.907410 312.940247,513.890930 
z"/>
<path fill="#055652" opacity="1.000000" stroke="none" 
	d="
M314.752747,218.252319 
	C314.409790,216.775360 314.321075,215.173843 314.362427,213.104340 
	C314.663971,214.466827 314.835449,216.297287 314.752747,218.252319 
z"/>
<path fill="#055652" opacity="1.000000" stroke="none" 
	d="
M286.290833,575.882812 
	C286.697998,574.663269 287.437744,573.376770 288.480835,571.974976 
	C288.063904,573.178406 287.343628,574.497070 286.290833,575.882812 
z"/>
<path fill="#024842" opacity="1.000000" stroke="none" 
	d="
M477.965759,460.526581 
	C478.978455,460.146454 480.114746,460.059753 481.673431,460.051086 
	C480.760345,460.359436 479.424805,460.589752 477.965759,460.526581 
z"/>
<path fill="#055652" opacity="1.000000" stroke="none" 
	d="
M314.782867,250.308929 
	C314.437073,249.445175 314.364502,248.497284 314.405396,247.084015 
	C315.452789,247.708221 318.103271,248.542130 314.782867,250.308929 
z"/>
<path fill="#055652" opacity="1.000000" stroke="none" 
	d="
M198.891479,535.387573 
	C198.056732,536.215088 196.863190,536.943298 195.408951,537.634766 
	C196.276382,536.828064 197.404541,536.058167 198.891479,535.387573 
z"/>
<path fill="#055652" opacity="1.000000" stroke="none" 
	d="
M314.768860,170.325287 
	C314.447601,169.449127 314.376160,168.497833 314.422607,167.080383 
	C314.699890,167.826218 314.859314,169.038193 314.768860,170.325287 
z"/>
<path fill="#055652" opacity="1.000000" stroke="none" 
	d="
M314.783997,322.321899 
	C314.450592,321.451691 314.376770,320.500275 314.419312,319.082184 
	C314.704987,319.823883 314.874298,321.032318 314.783997,322.321899 
z"/>
<path fill="#055652" opacity="1.000000" stroke="none" 
	d="
M279.641998,583.287476 
	C280.169250,582.195740 281.027618,581.040222 282.195801,579.811035 
	C281.661438,580.899536 280.817291,582.061584 279.641998,583.287476 
z"/>
<path fill="#055652" opacity="1.000000" stroke="none" 
	d="
M213.976868,520.373413 
	C213.631271,521.482178 213.017120,522.556335 212.096222,523.717957 
	C212.429077,522.649841 213.068695,521.494385 213.976868,520.373413 
z"/>
<path fill="#04302E" opacity="1.000000" stroke="none" 
	d="
M92.963943,599.533936 
	C94.116661,599.984680 95.346733,600.764343 96.719727,601.825562 
	C95.588867,601.359070 94.315079,600.610962 92.963943,599.533936 
z"/>
<path fill="#055652" opacity="1.000000" stroke="none" 
	d="
M257.214355,601.887817 
	C258.063477,601.460144 259.205566,601.059937 260.618103,600.778687 
	C259.761444,601.236877 258.634369,601.576111 257.214355,601.887817 
z"/>
<path fill="#055652" opacity="1.000000" stroke="none" 
	d="
M264.173340,596.867065 
	C264.803101,596.003723 265.719818,595.182373 266.945190,594.285034 
	C266.322662,595.108948 265.391479,596.009033 264.173340,596.867065 
z"/>
<path fill="#055652" opacity="1.000000" stroke="none" 
	d="
M211.442444,523.860474 
	C211.128738,524.862366 210.478760,525.908264 209.525146,527.056519 
	C209.849716,526.074097 210.477936,524.989258 211.442444,523.860474 
z"/>
<path fill="#034F49" opacity="1.000000" stroke="none" 
	d="
M378.274506,219.031128 
	C378.472107,217.397583 378.752014,216.042053 379.071167,214.333130 
	C379.110443,213.979736 379.492981,213.986145 379.684265,213.988159 
	C379.914032,215.749374 379.952515,217.508545 379.915833,219.701935 
	C379.346039,219.860489 378.851440,219.584824 378.274506,219.031128 
z"/>
<path fill="#024842" opacity="1.000000" stroke="none" 
	d="
M469.916260,614.554321 
	C470.189087,613.995605 470.563843,613.674561 471.180420,613.071960 
	C471.767914,613.410522 472.113617,614.030640 472.459320,614.650757 
	C471.645599,614.697876 470.831879,614.744934 469.916260,614.554321 
z"/>
<path fill="#055652" opacity="1.000000" stroke="none" 
	d="
M312.108612,518.961487 
	C312.001099,518.357605 312.138031,517.740845 312.480072,517.048950 
	C312.574493,517.632141 312.463776,518.290344 312.108612,518.961487 
z"/>
<path fill="#055652" opacity="1.000000" stroke="none" 
	d="
M216.995544,514.512573 
	C216.883087,515.558533 216.459595,516.711731 215.800812,518.070068 
	C215.938522,517.056763 216.311523,515.838318 216.995544,514.512573 
z"/>
<path fill="#055652" opacity="1.000000" stroke="none" 
	d="
M310.852264,524.378174 
	C310.821381,523.743347 311.029510,523.040405 311.461517,522.156860 
	C311.487335,522.754211 311.289307,523.532104 310.852264,524.378174 
z"/>
<path fill="#044B47" opacity="1.000000" stroke="none" 
	d="
M379.590576,614.241211 
	C380.300354,614.059998 380.843811,614.090881 381.788879,614.194763 
	C381.268463,614.329590 380.346344,614.391541 379.590576,614.241211 
z"/>
<path fill="#024842" opacity="1.000000" stroke="none" 
	d="
M484.879486,460.640106 
	C485.590607,460.241913 486.413239,460.109222 487.650208,460.035522 
	C487.040009,460.364899 486.015503,460.635254 484.879486,460.640106 
z"/>
<path fill="#055652" opacity="1.000000" stroke="none" 
	d="
M291.275513,568.847961 
	C291.405762,568.023376 291.861816,567.114136 292.601440,566.063599 
	C292.457092,566.869324 292.029175,567.816345 291.275513,568.847961 
z"/>
<path fill="#055652" opacity="1.000000" stroke="none" 
	d="
M289.122681,571.843872 
	C289.334290,571.247070 289.793121,570.684326 290.530914,570.052673 
	C290.329895,570.615112 289.849915,571.246521 289.122681,571.843872 
z"/>
<path fill="#055652" opacity="1.000000" stroke="none" 
	d="
M314.705536,162.309937 
	C314.447693,161.772614 314.381836,161.157242 314.406342,160.084198 
	C314.630310,160.494965 314.763885,161.363434 314.705536,162.309937 
z"/>
<path fill="#04302E" opacity="1.000000" stroke="none" 
	d="
M102.941811,606.589294 
	C103.758141,606.710327 104.680496,607.132935 105.713013,607.847168 
	C104.898048,607.722839 103.972939,607.306885 102.941811,606.589294 
z"/>
<path fill="#044B47" opacity="1.000000" stroke="none" 
	d="
M411.171997,617.096802 
	C411.394196,617.051392 411.615509,617.111328 411.836853,617.171265 
	C411.614960,617.181519 411.393036,617.191772 411.171997,617.096802 
z"/>
<path fill="#044B47" opacity="1.000000" stroke="none" 
	d="
M417.981323,614.299133 
	C418.382416,614.091187 418.878204,614.038513 419.741821,614.063965 
	C419.431732,614.246216 418.753876,614.350342 417.981323,614.299133 
z"/>
<path fill="#055652" opacity="1.000000" stroke="none" 
	d="
M314.699829,306.307373 
	C314.440460,305.770142 314.375122,305.156128 314.399963,304.085449 
	C314.624725,304.496063 314.759277,305.363281 314.699829,306.307373 
z"/>
<path fill="#055652" opacity="1.000000" stroke="none" 
	d="
M314.744934,311.324860 
	C314.488007,310.783142 314.422821,310.158386 314.448944,309.069092 
	C314.672394,309.483612 314.804535,310.362732 314.744934,311.324860 
z"/>
<path fill="#04302E" opacity="1.000000" stroke="none" 
	d="
M41.253517,470.778625 
	C41.620361,471.634491 41.699825,472.460754 41.757603,473.701660 
	C41.479321,472.993866 41.222733,471.871429 41.253517,470.778625 
z"/>
<path fill="#055652" opacity="1.000000" stroke="none" 
	d="
M314.712036,471.312775 
	C314.455566,470.773743 314.392059,470.156067 314.419556,469.079254 
	C314.642059,469.491455 314.773529,470.362793 314.712036,471.312775 
z"/>
<path fill="#055652" opacity="1.000000" stroke="none" 
	d="
M314.696045,461.306030 
	C314.440277,460.767426 314.379395,460.152527 314.410126,459.080933 
	C314.631470,459.492767 314.761169,460.361206 314.696045,461.306030 
z"/>
<path fill="#055652" opacity="1.000000" stroke="none" 
	d="
M261.615479,600.106445 
	C261.820007,599.370422 262.262268,598.446777 263.023529,597.416138 
	C262.846100,598.179016 262.349640,599.048950 261.615479,600.106445 
z"/>
<path fill="#04302E" opacity="1.000000" stroke="none" 
	d="
M97.015549,602.452454 
	C97.832138,602.589233 98.757355,603.034241 99.817635,603.760010 
	C99.009857,603.614075 98.067017,603.187378 97.015549,602.452454 
z"/>
<path fill="#055652" opacity="1.000000" stroke="none" 
	d="
M314.679626,330.300110 
	C314.424622,329.762634 314.364105,329.150085 314.397217,328.083130 
	C314.618591,328.494171 314.746368,329.359619 314.679626,330.300110 
z"/>
<path fill="#04302E" opacity="1.000000" stroke="none" 
	d="
M100.045609,604.358643 
	C100.816605,604.574463 101.669815,605.097717 102.621445,605.909302 
	C101.855850,605.687134 100.991837,605.176636 100.045609,604.358643 
z"/>
<path fill="#04302E" opacity="1.000000" stroke="none" 
	d="
M88.987213,596.577881 
	C89.566368,596.617737 90.261292,596.946533 91.116859,597.527710 
	C90.552666,597.475708 89.827827,597.171204 88.987213,596.577881 
z"/>
<path fill="#04302E" opacity="1.000000" stroke="none" 
	d="
M79.308563,587.007751 
	C79.827202,587.228027 80.414421,587.756592 81.107346,588.566772 
	C80.601089,588.337646 79.989120,587.826843 79.308563,587.007751 
z"/>
<path fill="#07958F" opacity="1.000000" stroke="none" 
	d="
M170.600357,137.009064 
	C169.865082,137.089020 168.733871,137.150360 167.319611,137.122391 
	C168.092529,137.018860 169.148468,137.004654 170.600357,137.009064 
z"/>
<path fill="#055652" opacity="1.000000" stroke="none" 
	d="
M305.885925,540.780029 
	C305.764130,540.282837 305.947968,539.640259 306.312561,538.878479 
	C306.392731,539.384399 306.292145,540.009583 305.885925,540.780029 
z"/>
<path fill="#055652" opacity="1.000000" stroke="none" 
	d="
M129.496613,207.908249 
	C129.476166,208.498108 129.169968,209.205124 128.610565,210.064026 
	C128.641876,209.485733 128.926376,208.755569 129.496613,207.908249 
z"/>
<path fill="#055652" opacity="1.000000" stroke="none" 
	d="
M208.807709,527.197815 
	C208.708359,527.792053 208.286911,528.390015 207.607391,529.096924 
	C207.728088,528.537720 208.106857,527.869629 208.807709,527.197815 
z"/>
<path fill="#055652" opacity="1.000000" stroke="none" 
	d="
M309.949280,527.901245 
	C309.835236,527.375854 309.992889,526.805420 310.359558,526.113098 
	C310.452698,526.612854 310.336853,527.234497 309.949280,527.901245 
z"/>
<path fill="#0AA39C" opacity="1.000000" stroke="none" 
	d="
M125.751724,454.950012 
	C125.787430,455.585602 125.580589,456.117188 125.373749,456.648804 
	C125.246368,456.216705 125.118988,455.784607 124.988922,455.135071 
	C125.160561,454.893768 125.334869,454.869904 125.751724,454.950012 
z"/>
<path fill="#055652" opacity="1.000000" stroke="none" 
	d="
M314.761230,242.283737 
	C314.460785,241.772751 314.396729,241.156586 314.425171,240.082611 
	C314.677612,240.476059 314.837616,241.327316 314.761230,242.283737 
z"/>
<path fill="#055652" opacity="1.000000" stroke="none" 
	d="
M314.753937,415.280762 
	C314.457031,414.769318 314.396271,414.153595 314.429169,413.081055 
	C314.678558,413.474945 314.834351,414.325745 314.753937,415.280762 
z"/>
<path fill="#055652" opacity="1.000000" stroke="none" 
	d="
M314.766602,410.284546 
	C314.469055,409.771881 314.407776,409.153839 314.440735,408.077148 
	C314.690887,408.472076 314.846863,409.325623 314.766602,410.284546 
z"/>
<path fill="#055652" opacity="1.000000" stroke="none" 
	d="
M314.762573,402.283783 
	C314.459778,401.774170 314.393188,401.159027 314.417114,400.086304 
	C314.671356,400.478546 314.835083,401.328400 314.762573,402.283783 
z"/>
<path fill="#107F7A" opacity="1.000000" stroke="none" 
	d="
M378.183044,320.405243 
	C378.493835,321.159180 378.721619,322.264130 378.943665,323.712036 
	C378.658569,322.955383 378.379303,321.855835 378.183044,320.405243 
z"/>
<path fill="#107F7A" opacity="1.000000" stroke="none" 
	d="
M378.668945,288.142212 
	C378.787079,288.748840 378.635956,289.549408 378.364471,290.630707 
	C378.295959,290.053009 378.347809,289.194550 378.668945,288.142212 
z"/>
<path fill="#07958F" opacity="1.000000" stroke="none" 
	d="
M246.597046,137.024811 
	C246.156433,137.068680 245.351486,137.099030 244.296204,137.084457 
	C244.774826,137.030121 245.503769,137.020706 246.597046,137.024811 
z"/>
<path fill="#07958F" opacity="1.000000" stroke="none" 
	d="
M125.332169,218.977112 
	C125.133759,218.361099 125.266922,217.792679 125.799744,217.227661 
	C126.521065,217.535767 126.842735,217.840469 127.164398,218.145172 
	C127.164398,218.145172 127.054588,218.553574 127.027679,218.763336 
	C126.555092,218.990280 126.109421,219.007492 125.332169,218.977112 
z"/>
<path fill="#07958F" opacity="1.000000" stroke="none" 
	d="
M378.121857,557.467407 
	C378.172577,557.879456 378.216522,558.630981 378.197693,559.613159 
	C378.128296,559.164856 378.121704,558.485840 378.121857,557.467407 
z"/>
<path fill="#07958F" opacity="1.000000" stroke="none" 
	d="
M378.072754,441.441620 
	C378.272827,441.896271 378.446777,442.691223 378.405640,443.649109 
	C378.142609,443.135315 378.094635,442.458618 378.072754,441.441620 
z"/>
<path fill="#055652" opacity="1.000000" stroke="none" 
	d="
M135.668488,188.666199 
	C135.575333,188.662094 135.681732,188.368011 135.681732,188.368011 
	C135.681732,188.368011 135.761642,188.670319 135.668488,188.666199 
z"/>
<path fill="#024842" opacity="1.000000" stroke="none" 
	d="
M441.431519,616.522095 
	C441.396027,616.464172 441.466980,616.579956 441.431519,616.522095 
z"/>
<path fill="#044B47" opacity="1.000000" stroke="none" 
	d="
M584.751099,138.038513 
	C584.812744,138.344498 584.524841,138.440735 584.042847,138.266052 
	C584.096191,138.114502 584.280396,138.059052 584.751099,138.038513 
z"/>
<path fill="#04302E" opacity="1.000000" stroke="none" 
	d="
M81.221245,589.897949 
	C81.376556,589.933960 81.500557,590.286011 81.860992,590.786499 
	C81.794922,590.694580 81.492432,590.454346 81.221245,589.897949 
z"/>
<path fill="#024842" opacity="1.000000" stroke="none" 
	d="
M454.961212,616.987183 
	C454.961212,616.987183 454.967194,617.043335 454.981567,617.031799 
	C454.995972,617.020264 454.961212,616.987183 454.961212,616.987183 
z"/>
<path fill="#024842" opacity="1.000000" stroke="none" 
	d="
M444.961182,616.987122 
	C444.961182,616.987122 444.967133,617.043335 444.981476,617.031738 
	C444.995819,617.020142 444.961182,616.987122 444.961182,616.987122 
z"/>
<path fill="#024842" opacity="1.000000" stroke="none" 
	d="
M455.014160,617.035950 
	C455.032379,617.051636 455.029480,616.975891 454.995361,616.981567 
	C454.961212,616.987183 454.995972,617.020264 455.014160,617.035950 
z"/>
<path fill="#024842" opacity="1.000000" stroke="none" 
	d="
M445.013977,617.035767 
	C445.032135,617.051392 445.029297,616.975830 444.995239,616.981445 
	C444.961182,616.987122 444.995819,617.020142 445.013977,617.035767 
z"/>
<path fill="#107F7A" opacity="1.000000" stroke="none" 
	d="
M378.734802,316.024567 
	C378.862366,316.185730 378.736328,316.424957 378.427490,316.790955 
	C378.145691,316.605743 378.224548,316.334045 378.734802,316.024567 
z"/>
<path fill="#055652" opacity="1.000000" stroke="none" 
	d="
M206.572723,529.892639 
	C206.714111,530.139160 206.523727,530.403687 206.009628,530.697510 
	C205.966217,530.523315 206.151230,530.251343 206.572723,529.892639 
z"/>
<path fill="#044B47" opacity="1.000000" stroke="none" 
	d="
M375.941528,614.959290 
	C375.941528,614.959290 375.924713,615.051880 375.951752,615.026245 
	C375.978790,615.000671 375.941528,614.959290 375.941528,614.959290 
z"/>
<path fill="#0AA39C" opacity="1.000000" stroke="none" 
	d="
M43.655540,454.945679 
	C43.660175,455.176086 43.302460,455.397186 42.681622,455.792847 
	C42.710060,455.623718 43.001625,455.280029 43.655540,454.945679 
z"/>
<path fill="#04302E" opacity="1.000000" stroke="none" 
	d="
M39.606445,454.594543 
	C39.507168,454.668976 39.456787,454.397400 39.456787,454.397400 
	C39.456787,454.397400 39.705719,454.520142 39.606445,454.594543 
z"/>
<path fill="#044B47" opacity="1.000000" stroke="none" 
	d="
M375.996887,615.021851 
	C376.014984,615.042969 376.034760,614.985107 375.988159,614.972168 
	C375.941528,614.959290 375.978790,615.000671 375.996887,615.021851 
z"/>
<path fill="#055652" opacity="1.000000" stroke="none" 
	d="
M294.115295,564.763062 
	C293.880920,564.494751 294.004150,564.243835 294.432404,563.950684 
	C294.776703,564.216431 294.688507,564.507141 294.115295,564.763062 
z"/>
<path fill="#000101" opacity="1.000000" stroke="none" 
	d="
M597.943604,359.964355 
	C597.780945,360.019287 597.618347,360.074158 596.909790,360.275665 
	C593.873962,361.844025 591.384033,363.265778 588.894165,364.687561 
	C588.894165,364.687592 588.405579,364.694000 587.791687,364.840820 
	C585.918518,365.363739 584.674316,365.803558 583.397461,366.105499 
	C576.022766,367.849152 568.661194,370.927063 561.256775,371.040222 
	C532.813110,371.474854 504.354675,370.975586 475.902466,370.737671 
	C474.367249,370.724854 472.838623,369.919800 471.306946,369.483521 
	C471.373138,340.249573 471.461182,311.015686 471.497009,281.781708 
	C471.517151,265.335388 471.451080,248.888931 471.559814,231.797058 
	C472.113190,230.751465 472.530579,230.351379 472.947998,229.951294 
	C501.657288,229.990768 530.366699,230.002060 559.075684,230.114792 
	C561.841370,230.125641 564.604614,230.766617 567.514160,231.016693 
	C567.083801,231.014664 566.508240,231.110992 565.932739,231.207321 
	C566.005859,231.450684 566.079041,231.694046 566.152161,231.937393 
	C566.816650,231.676575 567.481079,231.415756 568.145569,231.154938 
	C580.563843,232.293869 591.957397,235.559906 602.179016,243.489029 
	C616.168823,254.341232 624.495972,268.193573 627.889893,285.975952 
	C628.201416,288.437653 628.607483,290.204956 629.013489,291.972260 
	C629.053345,293.398956 629.093201,294.825623 629.087769,296.975067 
	C629.119202,299.429047 629.195984,301.160309 629.272705,302.891541 
	C629.176636,304.633575 629.080566,306.375580 628.690430,308.666534 
	C628.394714,310.436157 628.393188,311.656830 628.391724,312.877533 
	C628.261108,313.666504 628.130493,314.455475 627.782837,315.774597 
	C627.454712,317.173676 627.343689,318.042542 627.232605,318.911438 
	C626.818970,320.347168 626.405396,321.782898 625.670166,323.750305 
	C622.836548,329.885529 620.324524,335.489075 617.812500,341.092651 
	C617.649780,341.211426 617.486938,341.330200 616.793091,341.748810 
	C611.162476,347.355560 606.062866,352.662476 600.963318,357.969421 
	C600.963318,357.969421 600.997559,358.002319 600.657410,358.021912 
	C599.526001,358.682434 598.734802,359.323395 597.943604,359.964355 
z"/>
<path fill="#107F7A" opacity="1.000000" stroke="none" 
	d="
M471.268066,369.846954 
	C472.838623,369.919800 474.367249,370.724854 475.902466,370.737671 
	C504.354675,370.975586 532.813110,371.474854 561.256775,371.040222 
	C568.661194,370.927063 576.022766,367.849152 583.397461,366.105499 
	C584.674316,365.803558 585.918518,365.363739 587.571899,364.947449 
	C582.444275,367.216187 577.075867,370.080688 571.352844,371.660248 
	C566.677673,372.950592 561.578979,372.706818 556.182251,372.805695 
	C555.050842,372.343719 554.405457,372.110870 553.759888,372.110413 
	C527.980530,372.092194 502.201141,372.081818 476.421875,372.130524 
	C474.984222,372.133240 473.547546,372.646881 472.110413,372.922729 
	C471.816650,372.018616 471.522919,371.114502 471.268066,369.846954 
z"/>
<path fill="#04302E" opacity="1.000000" stroke="none" 
	d="
M472.572632,372.930359 
	C473.547546,372.646881 474.984222,372.133240 476.421875,372.130524 
	C502.201141,372.081818 527.980530,372.092194 553.759888,372.110413 
	C554.405457,372.110870 555.050842,372.343719 555.864502,372.699036 
	C528.366760,372.932556 500.700836,372.935272 472.572632,372.930359 
z"/>
<path fill="#107F7A" opacity="1.000000" stroke="none" 
	d="
M601.323608,357.924805 
	C606.062866,352.662476 611.162476,347.355560 616.610352,341.989532 
	C613.487061,348.798431 609.400757,355.077728 601.323608,357.924805 
z"/>
<path fill="#107F7A" opacity="1.000000" stroke="none" 
	d="
M618.068176,340.933044 
	C620.324524,335.489075 622.836548,329.885529 625.649414,324.124329 
	C623.408203,329.568970 620.866028,335.171234 618.068176,340.933044 
z"/>
<path fill="#107F7A" opacity="1.000000" stroke="none" 
	d="
M589.170105,364.791138 
	C591.384033,363.265778 593.873962,361.844025 596.713989,360.442871 
	C594.524719,361.940582 591.985413,363.417664 589.170105,364.791138 
z"/>
<path fill="#107F7A" opacity="1.000000" stroke="none" 
	d="
M629.115234,291.690674 
	C628.607483,290.204956 628.201416,288.437653 627.984375,286.366516 
	C628.521179,287.844788 628.869080,289.626953 629.115234,291.690674 
z"/>
<path fill="#107F7A" opacity="1.000000" stroke="none" 
	d="
M629.420776,302.591675 
	C629.195984,301.160309 629.119202,299.429047 629.173401,297.394928 
	C629.392517,298.825287 629.480713,300.558563 629.420776,302.591675 
z"/>
<path fill="#107F7A" opacity="1.000000" stroke="none" 
	d="
M628.538147,312.578979 
	C628.393188,311.656830 628.394714,310.436157 628.691895,309.102875 
	C628.886536,310.087006 628.785583,311.183716 628.538147,312.578979 
z"/>
<path fill="#107F7A" opacity="1.000000" stroke="none" 
	d="
M598.257629,359.917358 
	C598.734802,359.323395 599.526001,358.682434 600.644775,358.002625 
	C600.172058,358.599274 599.371887,359.234802 598.257629,359.917358 
z"/>
<path fill="#107F7A" opacity="1.000000" stroke="none" 
	d="
M627.391846,318.653931 
	C627.343689,318.042542 627.454712,317.173676 627.782593,316.175781 
	C627.849976,316.830017 627.700500,317.613220 627.391846,318.653931 
z"/>
<path fill="#107F7A" opacity="1.000000" stroke="none" 
	d="
M472.719238,229.915405 
	C472.530579,230.351379 472.113190,230.751465 471.499207,231.368835 
	C471.698547,231.017273 472.094513,230.448410 472.719238,229.915405 
z"/>
<path fill="#0AA39C" opacity="1.000000" stroke="none" 
	d="
M127.621872,218.137268 
	C126.842735,217.840469 126.521065,217.535767 125.970474,216.989868 
	C126.005386,216.243820 126.269218,215.738998 126.724213,215.022018 
	C129.703354,215.538803 132.487579,216.883789 135.279922,216.900894 
	C161.683411,217.062500 188.088348,216.969772 214.492615,217.042908 
	C217.095505,217.050110 219.696686,217.674240 222.665436,218.235428 
	C205.376099,218.339676 187.720123,218.180984 170.063812,218.113953 
	C156.069199,218.060806 142.074188,218.120041 127.621872,218.137268 
z"/>
<path fill="#07958F" opacity="1.000000" stroke="none" 
	d="
M568.164673,231.181290 
	C567.481079,231.415756 566.816650,231.676575 566.152161,231.937393 
	C566.079041,231.694046 566.005859,231.450684 565.932739,231.207321 
	C566.508240,231.110992 567.083801,231.014664 567.941467,231.088715 
	C568.223633,231.259094 568.183777,231.207642 568.164673,231.181290 
z"/>
</svg>